<svg width="216" height="189" viewBox="0 0 216 189" fill="none" xmlns="http://www.w3.org/2000/svg">
<path d="M119.466 14.5651C93.8661 -9.03492 96.5753 27.6707 80.9661 26.0651C66.111 24.537 62.9658 26.565 46.9658 8.56499C30.9658 -9.43501 12.2995 5.06505 4.96631 14.5651C-0.70036 24.3984 -6.23369 46.065 16.9663 54.065C40.1663 62.065 40.6328 78.3983 37.9661 85.565C26.9661 104.565 -15.6 152.2 76 177C167.6 201.8 194 183.5 186.966 156.565C179.949 129.695 150.566 120.765 190.966 85.565C241.466 41.565 200.466 30.565 190.966 31.065C181.466 31.565 151.466 44.0651 119.466 14.5651Z" fill="url(#paint0_radial_172_3)"/>
<defs>
<radialGradient id="paint0_radial_172_3" cx="0" cy="0" r="1" gradientUnits="userSpaceOnUse" gradientTransform="translate(107.837 94.355) rotate(89.9366) scale(147.145 157.348)">
<stop offset="0.283654" stop-color="#FF0000" stop-opacity="0.87"/>
<stop offset="0.875" stop-color="#737373" stop-opacity="0"/>
</radialGradient>
</defs>
</svg>
