<svg width="130" height="130" viewBox="0 0 357 388" fill="none" xmlns="http://www.w3.org/2000/svg">
<path d="M104.932 15C125.162 15 152.368 36.8441 149.868 63.5551C149.579 66.6464 146.256 68.2463 143.424 66.9725L125.902 59.0896C125.257 58.7995 124.558 58.6495 123.85 58.6495L100.85 58.6495C100.597 58.6495 100.344 58.6687 100.094 58.707L77.7264 62.1282C77.2542 62.2004 76.7947 62.34 76.3621 62.5426L61.1491 69.6659C57.8337 71.2184 54.0525 68.792 54.4142 65.149C57.0737 38.3642 73.5346 15 104.932 15Z" fill="#8C8C8C" stroke="black" stroke-width="20"/>
<path d="M233.293 334.408C210.115 343.109 188.004 346.221 171.133 344.501C153.734 342.728 144.315 336.226 141.885 328.434C139.455 320.642 143.269 309.172 156.031 296.076C168.406 283.377 187.619 270.974 210.797 262.272C233.975 253.57 256.086 250.459 272.957 252.179C290.356 253.952 299.775 260.454 302.205 268.246C304.635 276.038 300.821 287.508 288.059 300.604C275.684 313.303 256.471 325.706 233.293 334.408Z" fill="#BABABA" stroke="black" stroke-width="14"/>
<path d="M222.787 39.2539C197.525 30.4955 173.395 27.3526 154.95 29.0886C135.813 30.8897 125.656 37.5062 123.08 45.1321C120.505 52.758 124.533 64.2927 138.57 77.5951C152.099 90.4166 173.07 102.91 198.333 111.669C223.595 120.427 247.724 123.57 266.169 121.834C285.306 120.033 295.464 113.416 298.039 105.79C300.614 98.1646 296.586 86.6298 282.549 73.3274C269.02 60.506 248.049 48.0123 222.787 39.2539Z" fill="#BABABA" stroke="black" stroke-width="14"/>
<path d="M104.999 378C125.173 378 152.27 359.905 150.055 337.712C149.768 334.843 146.717 333.357 144.018 334.37L125.879 341.181C125.317 341.392 124.721 341.5 124.121 341.5L100.529 341.5L77.6409 338.578C77.2344 338.526 76.8358 338.425 76.4541 338.275L60.8195 332.165C57.5406 330.884 54.0146 333.313 54.4785 336.802C57.4145 358.89 73.8881 378 104.999 378Z" fill="#8C8C8C" stroke="black" stroke-width="20"/>
<path d="M90.4995 60.0001C58.1305 60.7801 36.1227 87.9223 26.7003 102.41C26.2339 103.127 25.9727 103.99 25.9233 104.844C21.8494 175.252 9.99951 155.804 9.99951 204C9.9995 233.422 24.7207 256.564 22.0788 281.3C22.0293 281.763 22.033 282.219 22.1138 282.678C25.6146 302.554 45.2997 340.895 97.4995 340.5C163.499 340 173.999 306.5 181.499 300C188.999 293.5 245.499 282 243.999 195C242.499 108 203.999 126 178.499 95.0001C152.999 64.0001 131.999 59.0001 90.4995 60.0001Z" fill="#BABABA" stroke="black" stroke-width="20"/>
<path d="M309.306 209C298.443 209 289.55 210.982 283.524 215.173C277.878 219.098 274 225.476 274 236.387C274 258.838 290.353 276 309.306 276C318.311 276 328.727 270.134 337.192 260.458C345.587 250.86 351 238.69 351 227.923C351 222.646 349.715 219.303 347.989 217.045C346.231 214.745 343.562 212.981 339.778 211.696C331.854 209.004 321.077 209 309.306 209Z" fill="#FFCC99" stroke="black" stroke-width="12"/>
<path d="M305.019 165C293.072 165 283.177 162.974 276.442 158.622C270.138 154.549 266 148.072 266 137.19C266 114.848 283.614 97 305.019 97C315.223 97 326.747 103.137 335.965 112.927C345.158 122.691 351 134.983 351 145.762C351 151.018 349.631 154.358 347.741 156.655C345.784 159.034 342.781 160.883 338.527 162.225C329.737 165 317.842 165 305.098 165L305.019 165Z" fill="#FFCC99" stroke="black" stroke-width="12"/>
<path d="M190.794 138L199.591 148.912C205.497 156.238 209.971 164.61 212.781 173.592L213.266 175.142C217.454 188.531 217.803 202.826 214.273 216.403L211.912 225.485C209.674 234.093 205.923 242.234 200.834 249.528L193.529 260" stroke="#A7A7A7" stroke-width="20" stroke-linecap="round"/>
<path d="M49.8829 136C50.5496 146.5 41.3761 168.627 34.3829 191V191C29.1256 207.819 39.8969 226.641 46.0656 243.148C50.1508 254.08 52.5986 264.753 49.8828 271" stroke="#A7A7A7" stroke-width="20" stroke-linecap="round"/>
</svg>
