<svg width="200" height="200" viewBox="0 0 1388 544" fill="none" xmlns="http://www.w3.org/2000/svg">
<path d="M378 192L103 222L103 330.5L378 365L378 192Z" fill="#B37842" stroke="black" stroke-width="20"/>
<path d="M103.5 222L103.5 330.5L241 347.75L241 207L103.5 222Z" fill="#FFC289" stroke="black" stroke-width="20"/>
<circle cx="69" cy="277" r="59" transform="rotate(90 69 277)" fill="#FFE356" stroke="black" stroke-width="20"/>
<rect x="449" y="90" width="377" height="71" transform="rotate(90 449 90)" fill="#FFE356" stroke="black" stroke-width="20"/>
<circle cx="413.5" cy="67.5" r="57.5" transform="rotate(90 413.5 67.5)" fill="#B37842" stroke="black" stroke-width="20"/>
<circle cx="413.5" cy="476.5" r="57.5" transform="rotate(90 413.5 476.5)" fill="#B37842" stroke="black" stroke-width="20"/>
<path d="M1112.93 171.072L457.694 211.212C455.056 211.374 453 213.56 453 216.203L453 335.364C453 337.979 455.015 340.152 457.623 340.35L1112.98 389.916C1113.72 389.971 1114.45 389.863 1115.14 389.6L1374.4 290.437C1378.61 288.828 1378.71 282.916 1374.56 281.162L1115.18 171.457C1114.47 171.157 1113.7 171.025 1112.93 171.072Z" fill="#D9D9D9" stroke="black" stroke-width="20"/>
<path d="M1115.14 389.601L1361.42 295.61C1366.57 293.642 1365.21 286 1359.69 285.939L458.055 276.055C455.272 276.025 453 278.272 453 281.055L453 335.472C453 338.088 455.016 340.261 457.624 340.458L1112.98 389.916C1113.72 389.971 1114.45 389.864 1115.14 389.601Z" fill="#B0B0B0" stroke="black" stroke-width="15"/>
</svg>
